# Blender 4.3.2
# www.blender.org
mtllib Ring.mtl
o トーラス.001
v 1.250000 0.000000 0.000000
v 0.930562 0.000000 0.000000
v 1.243981 -0.000000 -0.122521
v 0.926081 -0.000000 -0.091211
v 1.225982 -0.000000 -0.243863
v 0.912681 -0.000000 -0.181544
v 1.196175 -0.000000 -0.362856
v 0.890492 -0.000000 -0.270128
v 1.154849 -0.000000 -0.478354
v 0.859727 -0.000000 -0.356111
v 1.102402 -0.000000 -0.589246
v 0.820682 -0.000000 -0.438664
v 1.039337 -0.000000 -0.694463
v 0.773734 -0.000000 -0.516993
v 0.966263 -0.000000 -0.792992
v 0.719334 -0.000000 -0.590342
v 0.883883 -0.000000 -0.883884
v 0.658007 -0.000000 -0.658007
v 0.792992 -0.000000 -0.966263
v 0.590342 -0.000000 -0.719334
v 0.694463 -0.000000 -1.039337
v 0.516992 -0.000000 -0.773734
v 0.589246 -0.000000 -1.102401
v 0.438664 -0.000000 -0.820682
v 0.478355 -0.000000 -1.154849
v 0.356111 -0.000000 -0.859727
v 0.362856 -0.000000 -1.196175
v 0.270128 -0.000000 -0.890492
v 0.243863 -0.000000 -1.225982
v 0.181544 -0.000000 -0.912681
v 0.122521 -0.000000 -1.243981
v 0.091211 -0.000000 -0.926081
v 0.000000 -0.000000 -1.250000
v 0.000000 -0.000000 -0.930562
v -0.122522 -0.000000 -1.243981
v -0.091211 -0.000000 -0.926081
v -0.243863 -0.000000 -1.225982
v -0.181544 -0.000000 -0.912681
v -0.362856 -0.000000 -1.196176
v -0.270128 -0.000000 -0.890492
v -0.478354 -0.000000 -1.154849
v -0.356111 -0.000000 -0.859727
v -0.589246 -0.000000 -1.102402
v -0.438664 -0.000000 -0.820682
v -0.694462 -0.000000 -1.039337
v -0.516992 -0.000000 -0.773734
v -0.792992 -0.000000 -0.966263
v -0.590342 -0.000000 -0.719334
v -0.883884 -0.000000 -0.883883
v -0.658007 -0.000000 -0.658006
v -0.966263 -0.000000 -0.792992
v -0.719334 -0.000000 -0.590342
v -1.039337 -0.000000 -0.694463
v -0.773734 -0.000000 -0.516993
v -1.102402 -0.000000 -0.589246
v -0.820682 -0.000000 -0.438664
v -1.154849 -0.000000 -0.478354
v -0.859727 -0.000000 -0.356111
v -1.196175 -0.000000 -0.362856
v -0.890492 -0.000000 -0.270128
v -1.225982 -0.000000 -0.243863
v -0.912681 -0.000000 -0.181544
v -1.243981 -0.000000 -0.122521
v -0.926081 -0.000000 -0.091211
v -1.250000 0.000000 0.000000
v -0.930562 0.000000 0.000000
v -1.243981 0.000000 0.122521
v -0.926081 0.000000 0.091211
v -1.225982 0.000000 0.243863
v -0.912681 0.000000 0.181544
v -1.196176 0.000000 0.362856
v -0.890492 0.000000 0.270128
v -1.154850 0.000000 0.478354
v -0.859727 0.000000 0.356110
v -1.102402 0.000000 0.589246
v -0.820682 0.000000 0.438664
v -1.039337 0.000000 0.694463
v -0.773734 0.000000 0.516993
v -0.966263 0.000000 0.792991
v -0.719334 0.000000 0.590342
v -0.883884 0.000000 0.883883
v -0.658007 0.000000 0.658006
v -0.792992 0.000000 0.966263
v -0.590342 0.000000 0.719334
v -0.694463 0.000000 1.039337
v -0.516993 0.000000 0.773734
v -0.589246 0.000000 1.102401
v -0.438664 0.000000 0.820682
v -0.478354 0.000000 1.154849
v -0.356111 0.000000 0.859727
v -0.362856 0.000000 1.196176
v -0.270128 0.000000 0.890492
v -0.243863 0.000000 1.225981
v -0.181544 0.000000 0.912681
v -0.122522 0.000000 1.243981
v -0.091211 0.000000 0.926081
v 0.000000 0.000000 1.250000
v 0.000000 0.000000 0.930562
v 0.122521 0.000000 1.243981
v 0.091210 0.000000 0.926081
v 0.243863 0.000000 1.225982
v 0.181543 0.000000 0.912682
v 0.362856 0.000000 1.196175
v 0.270128 0.000000 0.890492
v 0.478355 0.000000 1.154849
v 0.356111 0.000000 0.859727
v 0.589245 0.000000 1.102402
v 0.438664 0.000000 0.820683
v 0.694463 0.000000 1.039337
v 0.516992 0.000000 0.773734
v 0.792992 0.000000 0.966263
v 0.590342 0.000000 0.719334
v 0.883883 0.000000 0.883884
v 0.658006 0.000000 0.658007
v 0.966263 0.000000 0.792992
v 0.719334 0.000000 0.590342
v 1.039337 0.000000 0.694463
v 0.773734 0.000000 0.516993
v 1.102402 0.000000 0.589246
v 0.820683 0.000000 0.438664
v 1.154849 0.000000 0.478355
v 0.859727 0.000000 0.356111
v 1.196175 0.000000 0.362856
v 0.890492 0.000000 0.270128
v 1.225982 0.000000 0.243863
v 0.912681 0.000000 0.181543
v 1.243981 0.000000 0.122522
v 0.926081 0.000000 0.091212
vn -0.0000 1.0000 -0.0000
vt 0.515625 0.004557
vt 0.500000 1.000000
vt 0.500000 0.004557
vt 0.531250 0.004557
vt 0.515625 1.000000
vt 0.546875 0.004557
vt 0.531250 1.000000
vt 0.562500 1.000000
vt 0.546875 1.000000
vt 0.578125 0.004557
vt 0.562500 0.004557
vt 0.593750 1.000000
vt 0.578125 1.000000
vt 0.609375 0.004557
vt 0.593750 0.004557
vt 0.625000 1.000000
vt 0.609375 1.000000
vt 0.640625 0.004557
vt 0.625000 0.004557
vt 0.656250 0.004557
vt 0.640625 1.000000
vt 0.671875 0.004557
vt 0.656250 1.000000
vt 0.687500 1.000000
vt 0.671875 1.000000
vt 0.703125 0.004557
vt 0.687500 0.004557
vt 0.718750 1.000000
vt 0.703125 1.000000
vt 0.718750 0.004557
vt 0.734375 1.000000
vt 0.734375 0.004557
vt 0.750000 1.000000
vt 0.750000 0.004557
vt 0.765625 1.000000
vt 0.781250 0.004557
vt 0.765625 0.004557
vt 0.796875 1.000000
vt 0.781250 1.000000
vt 0.812500 0.004557
vt 0.796875 0.004557
vt 0.828125 0.004557
vt 0.812500 1.000000
vt 0.843750 0.004557
vt 0.828125 1.000000
vt 0.859375 1.000000
vt 0.843750 1.000000
vt 0.875000 0.004557
vt 0.859375 0.004557
vt 0.890625 0.004557
vt 0.875000 1.000000
vt 0.906250 1.000000
vt 0.890625 1.000000
vt 0.921875 0.004557
vt 0.906250 0.004557
vt 0.937500 0.004557
vt 0.921875 1.000000
vt 0.953125 0.004557
vt 0.937500 1.000000
vt 0.968750 1.000000
vt 0.953125 1.000000
vt 0.968750 0.004557
vt 0.984375 1.000000
vt 0.984375 0.004557
vt 1.000000 1.000000
vt 0.015625 0.004557
vt 0.000000 1.000000
vt 0.000000 0.004557
vt 0.031250 0.004557
vt 0.015625 1.000000
vt 0.046875 1.000000
vt 0.031250 1.000000
vt 0.062500 0.004557
vt 0.046875 0.004557
vt 0.078125 0.004557
vt 0.062500 1.000000
vt 0.093750 1.000000
vt 0.078125 1.000000
vt 0.109375 0.004557
vt 0.093750 0.004557
vt 0.125000 1.000000
vt 0.109375 1.000000
vt 0.140625 0.004557
vt 0.125000 0.004557
vt 0.156250 1.000000
vt 0.140625 1.000000
vt 0.171875 0.004557
vt 0.156250 0.004557
vt 0.187500 1.000000
vt 0.171875 1.000000
vt 0.187500 0.004557
vt 0.203125 1.000000
vt 0.218750 0.004557
vt 0.203125 0.004557
vt 0.234375 1.000000
vt 0.218750 1.000000
vt 0.250000 0.004557
vt 0.234375 0.004557
vt 0.265625 1.000000
vt 0.250000 1.000000
vt 0.265625 0.004557
vt 0.281250 1.000000
vt 0.296875 0.004557
vt 0.281250 0.004557
vt 0.312500 1.000000
vt 0.296875 1.000000
vt 0.312500 0.004557
vt 0.328125 1.000000
vt 0.343750 0.004557
vt 0.328125 0.004557
vt 0.359375 1.000000
vt 0.343750 1.000000
vt 0.359375 0.004557
vt 0.375000 1.000000
vt 0.390625 0.004557
vt 0.375000 0.004557
vt 0.406250 1.000000
vt 0.390625 1.000000
vt 0.406250 0.004557
vt 0.421875 1.000000
vt 0.437500 0.004557
vt 0.421875 0.004557
vt 0.453125 0.004557
vt 0.437500 1.000000
vt 0.468750 0.004557
vt 0.453125 1.000000
vt 0.484375 1.000000
vt 0.468750 1.000000
vt 0.484375 0.004557
vt 1.000000 0.004557
s 1
usemtl マテリアル
f 3/1/1 2/2/1 1/3/1
f 5/4/1 4/5/1 3/1/1
f 7/6/1 6/7/1 5/4/1
f 7/6/1 10/8/1 8/9/1
f 11/10/1 10/8/1 9/11/1
f 11/10/1 14/12/1 12/13/1
f 15/14/1 14/12/1 13/15/1
f 15/14/1 18/16/1 16/17/1
f 19/18/1 18/16/1 17/19/1
f 21/20/1 20/21/1 19/18/1
f 23/22/1 22/23/1 21/20/1
f 23/22/1 26/24/1 24/25/1
f 27/26/1 26/24/1 25/27/1
f 27/26/1 30/28/1 28/29/1
f 29/30/1 32/31/1 30/28/1
f 31/32/1 34/33/1 32/31/1
f 33/34/1 36/35/1 34/33/1
f 37/36/1 36/35/1 35/37/1
f 37/36/1 40/38/1 38/39/1
f 41/40/1 40/38/1 39/41/1
f 43/42/1 42/43/1 41/40/1
f 45/44/1 44/45/1 43/42/1
f 45/44/1 48/46/1 46/47/1
f 49/48/1 48/46/1 47/49/1
f 51/50/1 50/51/1 49/48/1
f 51/50/1 54/52/1 52/53/1
f 55/54/1 54/52/1 53/55/1
f 57/56/1 56/57/1 55/54/1
f 59/58/1 58/59/1 57/56/1
f 59/58/1 62/60/1 60/61/1
f 61/62/1 64/63/1 62/60/1
f 63/64/1 66/65/1 64/63/1
f 67/66/1 66/67/1 65/68/1
f 69/69/1 68/70/1 67/66/1
f 69/69/1 72/71/1 70/72/1
f 73/73/1 72/71/1 71/74/1
f 75/75/1 74/76/1 73/73/1
f 75/75/1 78/77/1 76/78/1
f 79/79/1 78/77/1 77/80/1
f 79/79/1 82/81/1 80/82/1
f 83/83/1 82/81/1 81/84/1
f 83/83/1 86/85/1 84/86/1
f 87/87/1 86/85/1 85/88/1
f 87/87/1 90/89/1 88/90/1
f 89/91/1 92/92/1 90/89/1
f 93/93/1 92/92/1 91/94/1
f 93/93/1 96/95/1 94/96/1
f 97/97/1 96/95/1 95/98/1
f 97/97/1 100/99/1 98/100/1
f 99/101/1 102/102/1 100/99/1
f 103/103/1 102/102/1 101/104/1
f 103/103/1 106/105/1 104/106/1
f 105/107/1 108/108/1 106/105/1
f 109/109/1 108/108/1 107/110/1
f 109/109/1 112/111/1 110/112/1
f 111/113/1 114/114/1 112/111/1
f 115/115/1 114/114/1 113/116/1
f 115/115/1 118/117/1 116/118/1
f 117/119/1 120/120/1 118/117/1
f 121/121/1 120/120/1 119/122/1
f 123/123/1 122/124/1 121/121/1
f 125/125/1 124/126/1 123/123/1
f 125/125/1 128/127/1 126/128/1
f 127/129/1 2/2/1 128/127/1
f 3/1/1 4/5/1 2/2/1
f 5/4/1 6/7/1 4/5/1
f 7/6/1 8/9/1 6/7/1
f 7/6/1 9/11/1 10/8/1
f 11/10/1 12/13/1 10/8/1
f 11/10/1 13/15/1 14/12/1
f 15/14/1 16/17/1 14/12/1
f 15/14/1 17/19/1 18/16/1
f 19/18/1 20/21/1 18/16/1
f 21/20/1 22/23/1 20/21/1
f 23/22/1 24/25/1 22/23/1
f 23/22/1 25/27/1 26/24/1
f 27/26/1 28/29/1 26/24/1
f 27/26/1 29/30/1 30/28/1
f 29/30/1 31/32/1 32/31/1
f 31/32/1 33/34/1 34/33/1
f 33/34/1 35/37/1 36/35/1
f 37/36/1 38/39/1 36/35/1
f 37/36/1 39/41/1 40/38/1
f 41/40/1 42/43/1 40/38/1
f 43/42/1 44/45/1 42/43/1
f 45/44/1 46/47/1 44/45/1
f 45/44/1 47/49/1 48/46/1
f 49/48/1 50/51/1 48/46/1
f 51/50/1 52/53/1 50/51/1
f 51/50/1 53/55/1 54/52/1
f 55/54/1 56/57/1 54/52/1
f 57/56/1 58/59/1 56/57/1
f 59/58/1 60/61/1 58/59/1
f 59/58/1 61/62/1 62/60/1
f 61/62/1 63/64/1 64/63/1
f 63/64/1 65/130/1 66/65/1
f 67/66/1 68/70/1 66/67/1
f 69/69/1 70/72/1 68/70/1
f 69/69/1 71/74/1 72/71/1
f 73/73/1 74/76/1 72/71/1
f 75/75/1 76/78/1 74/76/1
f 75/75/1 77/80/1 78/77/1
f 79/79/1 80/82/1 78/77/1
f 79/79/1 81/84/1 82/81/1
f 83/83/1 84/86/1 82/81/1
f 83/83/1 85/88/1 86/85/1
f 87/87/1 88/90/1 86/85/1
f 87/87/1 89/91/1 90/89/1
f 89/91/1 91/94/1 92/92/1
f 93/93/1 94/96/1 92/92/1
f 93/93/1 95/98/1 96/95/1
f 97/97/1 98/100/1 96/95/1
f 97/97/1 99/101/1 100/99/1
f 99/101/1 101/104/1 102/102/1
f 103/103/1 104/106/1 102/102/1
f 103/103/1 105/107/1 106/105/1
f 105/107/1 107/110/1 108/108/1
f 109/109/1 110/112/1 108/108/1
f 109/109/1 111/113/1 112/111/1
f 111/113/1 113/116/1 114/114/1
f 115/115/1 116/118/1 114/114/1
f 115/115/1 117/119/1 118/117/1
f 117/119/1 119/122/1 120/120/1
f 121/121/1 122/124/1 120/120/1
f 123/123/1 124/126/1 122/124/1
f 125/125/1 126/128/1 124/126/1
f 125/125/1 127/129/1 128/127/1
f 127/129/1 1/3/1 2/2/1
