# Blender 4.1.1
# www.blender.org
mtllib Circle.mtl
o 円
v 0.000000 0.000000 -1.000000
v -0.195090 0.000000 -0.980785
v -0.382683 0.000000 -0.923880
v -0.555570 0.000000 -0.831470
v -0.707107 0.000000 -0.707107
v -0.831470 0.000000 -0.555570
v -0.923880 0.000000 -0.382683
v -0.980785 0.000000 -0.195090
v -1.000000 0.000000 0.000000
v -0.980785 0.000000 0.195090
v -0.923880 0.000000 0.382683
v -0.831470 0.000000 0.555570
v -0.707107 0.000000 0.707107
v -0.555570 0.000000 0.831470
v -0.382683 0.000000 0.923880
v -0.195090 0.000000 0.980785
v 0.000000 0.000000 1.000000
v 0.195090 0.000000 0.980785
v 0.382683 0.000000 0.923880
v 0.555570 0.000000 0.831470
v 0.707107 0.000000 0.707107
v 0.831470 0.000000 0.555570
v 0.923880 0.000000 0.382683
v 0.980785 0.000000 0.195090
v 1.000000 0.000000 0.000000
v 0.980785 0.000000 -0.195090
v 0.923880 0.000000 -0.382683
v 0.831470 0.000000 -0.555570
v 0.707107 0.000000 -0.707107
v 0.555570 0.000000 -0.831470
v 0.382683 0.000000 -0.923880
v 0.195090 0.000000 -0.980785
vn -0.0000 1.0000 -0.0000
vt 0.592683 0.006306
vt 0.687217 0.033873
vt 0.774556 0.079354
vt 0.851345 0.141000
vt 0.914631 0.216442
vt 0.961984 0.302781
vt 0.991582 0.396699
vt 1.002290 0.494587
vt 0.993694 0.592683
vt 0.966127 0.687217
vt 0.920646 0.774556
vt 0.859000 0.851345
vt 0.783558 0.914631
vt 0.697219 0.961984
vt 0.603301 0.991582
vt 0.505413 1.002290
vt 0.407317 0.993694
vt 0.312783 0.966127
vt 0.225444 0.920646
vt 0.148655 0.859000
vt 0.085369 0.783558
vt 0.038016 0.697219
vt 0.008418 0.603301
vt -0.002290 0.505413
vt 0.006306 0.407317
vt 0.033873 0.312783
vt 0.079354 0.225444
vt 0.141000 0.148655
vt 0.216442 0.085369
vt 0.302781 0.038016
vt 0.396699 0.008418
vt 0.494587 -0.002290
s 0
f 2/1/1 3/2/1 4/3/1 5/4/1 6/5/1 7/6/1 8/7/1 9/8/1 10/9/1 11/10/1 12/11/1 13/12/1 14/13/1 15/14/1 16/15/1 17/16/1 18/17/1 19/18/1 20/19/1 21/20/1 22/21/1 23/22/1 24/23/1 25/24/1 26/25/1 27/26/1 28/27/1 29/28/1 30/29/1 31/30/1 32/31/1 1/32/1
